<svg xmlns="http://www.w3.org/2000/svg" xmlns:xlink="http://www.w3.org/1999/xlink" xml:space="preserve" version="1.1" style="shape-rendering:geometricPrecision;text-rendering:geometricPrecision;image-rendering:optimizeQuality;" viewBox="0 0 405 731.25" x="0px" y="0px" fill-rule="evenodd" clip-rule="evenodd"><defs><style type="text/css">
   
    .fil0 {fill:black;fill-rule:nonzero}
   
  </style></defs><g><path class="fil0" d="M300 174c10,15 16,34 16,54l0 73c0,13 -20,13 -20,0l0 -73c0,-11 -2,-21 -6,-30l10 -24zm-186 26c-4,9 -6,18 -6,28l0 73c0,12 -20,12 -20,0l0 -73c0,-16 4,-30 10,-43l16 15zm-75 45l27 0 0 57c0,18 14,32 32,32l0 0c17,0 31,-14 31,-32l0 -57 145 0 0 57c0,18 14,32 31,32l0 0c18,0 32,-14 32,-32l0 -57 29 0c13,0 23,9 24,20l15 299c0,11 -11,21 -24,21l-358 0c-12,0 -24,-10 -23,-21l16 -299c0,-11 10,-20 23,-20zm156 -245l0 0c47,0 86,39 86,86l0 80c0,18 -14,46 -31,40 -7,-2 -16,-12 -22,-7 -15,12 -25,5 -36,0 -12,-5 -28,6 -50,0 -18,-5 -33,-15 -33,-33l0 -80c0,-47 39,-86 86,-86zm82 61c31,43 44,78 -6,93l6 -93z"/></g><text x="0" y="600" fill="#000000" font-size="5px" font-weight="bold" font-family="'Helvetica Neue', Helvetica, Arial-Unicode, Arial, Sans-serif">Created by Jenie Tomboc</text><text x="0" y="605" fill="#000000" font-size="5px" font-weight="bold" font-family="'Helvetica Neue', Helvetica, Arial-Unicode, Arial, Sans-serif">from the Noun Project</text></svg>