<svg xmlns="http://www.w3.org/2000/svg" xmlns:xlink="http://www.w3.org/1999/xlink" version="1.1" x="0px" y="0px" viewBox="0 0 50 62.5" enable-background="new 0 0 50 50" xml:space="preserve"><g><path fill-rule="evenodd" clip-rule="evenodd" d="M36.344,23.216l0.068-4.078h5.064l0.941,4.078H36.344z M12.533,32.721   c0-1.63,1.314-2.945,2.945-2.945c1.63,0,2.944,1.314,2.944,2.945c0,1.63-1.314,2.944-2.944,2.944   C13.847,35.665,12.533,34.351,12.533,32.721z M38.719,32.731c0-1.63,1.314-2.944,2.944-2.944c1.63,0,2.945,1.314,2.945,2.944   c0,1.631-1.314,2.944-2.945,2.944C40.033,35.675,38.719,34.362,38.719,32.731z M36.459,16.297l0.08-4.797L8.233,11.5L7.784,34.152   h2.101c0.634,2.499,2.891,4.338,5.592,4.338c2.701,0,4.958-1.839,5.592-4.338h14.999c0.63,2.504,2.889,4.349,5.594,4.349   s4.964-1.845,5.594-4.349H50V23.234l-4.673-0.01l-1.6-6.926H36.459z M6.619,24.82H2.454v2.841h4.109L6.619,24.82z M1.228,22.884   h5.43l0.057-2.841H1.228V22.884z M0,18.105h6.753l0.056-2.841H0V18.105z M22.25,17.23l3.762-3.437l0.7,0.7l-2.759,2.759   l0.385,0.385l2.816-2.702l0.7,0.701l-2.702,2.815l0.385,0.386l2.758-2.759l0.701,0.699l-3.438,3.762h-1.482l-0.42-0.42   l-0.549,0.561l5.15,5.131l-1.139,1.139l-5.092-5.164l-5.048,5.164l-1.139-1.139l4.652-4.549l-4.715-5.741l1.086-1.087l5.247,5.247   l0.562-0.549l-0.421-0.421C22.25,18.218,22.25,17.724,22.25,17.23z"/></g><text x="0" y="65" fill="#000000" font-size="5px" font-weight="bold" font-family="'Helvetica Neue', Helvetica, Arial-Unicode, Arial, Sans-serif">Created by Georgiana Ionescu</text><text x="0" y="70" fill="#000000" font-size="5px" font-weight="bold" font-family="'Helvetica Neue', Helvetica, Arial-Unicode, Arial, Sans-serif">from the Noun Project</text></svg>